<?xml version="1.0" standalone="no"?>
<!DOCTYPE svg PUBLIC "-//W3C//DTD SVG 20010904//EN"
 "http://www.w3.org/TR/2001/REC-SVG-20010904/DTD/svg10.dtd">
<svg version="1.0" xmlns="http://www.w3.org/2000/svg"
 width="367.000000pt" height="426.000000pt" viewBox="0 0 367.000000 426.000000"
 preserveAspectRatio="xMidYMid meet">

<g transform="translate(0.000000,426.000000) scale(0.100000,-0.100000)"
fill="#000000" stroke="none">
<path d="M390 2300 l0 -1610 761 0 c690 0 761 1 755 16 -3 9 -6 51 -6 95 l0
79 -665 0 -665 0 0 1419 c0 1285 1 1419 16 1425 9 3 302 6 652 6 624 0 636 0
679 -21 23 -11 53 -35 65 -52 22 -31 23 -39 26 -319 l3 -288 277 0 c314 0 327
-3 369 -76 l23 -39 0 -637 0 -638 95 0 95 0 0 630 c0 661 -2 701 -45 775 -13
22 -196 212 -407 421 -356 355 -387 383 -441 403 -57 21 -69 21 -822 21 l-765
0 0 -1610z"/>
<path d="M1128 3293 c-3 -37 -4 -38 -63 -53 -77 -21 -116 -42 -160 -85 -66
-67 -83 -201 -36 -298 27 -56 87 -100 188 -138 l83 -32 0 -103 c0 -56 -4 -105
-9 -109 -15 -8 -108 30 -167 69 l-53 36 -24 -33 c-14 -17 -37 -52 -53 -76 -28
-42 -28 -44 -9 -58 41 -31 164 -84 233 -100 l72 -17 0 -68 0 -68 70 0 70 0 0
69 0 68 43 7 c115 18 217 105 237 203 21 101 -6 191 -77 253 -37 33 -133 81
-185 94 l-28 6 0 105 c0 68 4 105 11 105 6 0 45 -16 87 -35 58 -27 78 -32 84
-23 4 7 23 41 43 75 l36 62 -42 27 c-40 25 -118 55 -181 68 -25 6 -28 11 -28
46 l0 40 -69 0 -70 0 -3 -37z m12 -303 c0 -101 -4 -105 -61 -67 -28 19 -35 30
-37 65 -3 34 2 47 22 67 14 14 37 25 51 25 25 0 25 0 25 -90z m160 -345 c55
-28 78 -97 48 -138 -16 -20 -69 -48 -80 -41 -9 6 -11 194 -3 194 4 0 19 -7 35
-15z"/>
<path d="M1700 2403 l0 -93 345 0 346 0 -3 91 -3 90 -342 2 -343 2 0 -92z"/>
<path d="M870 1845 l0 -95 760 0 760 0 0 95 0 95 -760 0 -760 0 0 -95z"/>
<path d="M2580 1480 c-364 -97 -576 -435 -506 -803 26 -133 83 -238 189 -345
223 -228 576 -266 851 -92 186 117 317 356 316 573 -2 291 -201 565 -474 653
-112 37 -269 43 -376 14z m616 -297 c31 -20 48 -66 39 -110 -6 -33 -45 -76
-288 -321 -155 -156 -294 -290 -309 -298 -31 -16 -81 -18 -106 -5 -20 11 -137
125 -240 234 -58 61 -72 82 -72 107 0 46 24 85 65 104 59 29 88 15 198 -92
l98 -96 242 242 c158 157 253 246 272 251 34 10 70 4 101 -16z"/>
<path d="M870 1285 l0 -95 559 0 c549 0 560 0 566 20 3 11 30 53 60 95 l54 75
-619 0 -620 0 0 -95z"/>
</g>
</svg>
