<?xml version="1.0" standalone="no"?>
<!DOCTYPE svg PUBLIC "-//W3C//DTD SVG 20010904//EN"
 "http://www.w3.org/TR/2001/REC-SVG-20010904/DTD/svg10.dtd">
<svg version="1.0" xmlns="http://www.w3.org/2000/svg"
 width="200.000000pt" height="200.000000pt" viewBox="0 0 200.000000 200.000000"
 preserveAspectRatio="xMidYMid meet">

<g transform="translate(0.000000,200.000000) scale(0.100000,-0.100000)"
fill="#000000" stroke="none">
<path d="M649 1857 c-24 -13 -57 -43 -74 -66 l-30 -43 -3 -313 -3 -313 -187
-112 c-103 -62 -202 -124 -220 -137 l-32 -24 0 -218 c0 -159 3 -221 13 -233
19 -24 580 -348 602 -348 11 0 38 12 60 25 l40 25 292 0 c346 0 380 5 439 64
25 24 46 58 53 81 7 28 11 262 11 756 l0 717 -28 53 c-22 43 -38 59 -81 81
l-53 28 -378 0 c-375 0 -377 0 -421 -23z m268 -84 c8 -21 20 -41 27 -45 15
-10 248 -10 263 0 7 4 19 24 28 45 l15 37 98 0 c80 0 103 -4 130 -20 64 -39
62 -16 62 -807 0 -694 -1 -719 -20 -750 -37 -61 -52 -64 -331 -61 l-250 3 170
103 c93 57 175 110 181 117 7 8 9 90 8 241 l-3 228 -297 179 -297 180 -40 -26
c-23 -15 -45 -27 -51 -27 -8 0 -10 82 -8 273 3 237 5 276 21 304 27 51 58 62
175 63 l103 0 16 -37z m258 27 c-3 -6 -48 -10 -101 -10 -56 0 -94 4 -94 10 0
6 40 10 101 10 64 0 98 -4 94 -10z m-219 -807 c134 -82 244 -150 244 -153 0
-3 -34 -25 -75 -49 l-76 -43 -202 122 c-111 68 -221 135 -245 149 -23 14 -41
29 -39 34 3 9 128 86 141 87 4 0 118 -66 252 -147z m-226 -130 c124 -75 231
-142 239 -149 12 -11 11 -15 -11 -24 -23 -11 -45 0 -259 130 -129 78 -240 147
-247 152 -10 8 -8 13 5 24 10 7 25 11 33 8 8 -3 116 -66 240 -141z m-108 -74
l249 -151 -80 -49 -80 -49 -250 147 c-138 81 -251 151 -251 154 0 6 149 98
159 99 2 0 116 -68 253 -151z m-149 -184 l206 -120 1 -172 c0 -95 -2 -173 -5
-173 -3 0 -118 66 -255 146 l-250 146 0 175 0 175 48 -29 c27 -15 142 -82 255
-148z m767 2 c0 -144 -2 -166 -17 -179 -10 -8 -110 -70 -223 -138 -113 -68
-215 -130 -227 -138 l-23 -14 0 173 0 174 69 43 c38 23 71 42 75 42 3 0 6 -34
8 -76 2 -60 7 -79 20 -88 18 -11 28 -7 121 51 l37 23 0 103 0 102 68 42 c37
23 73 42 80 43 9 0 12 -39 12 -163z m-247 -105 c-17 -12 -18 -9 -21 50 -3 51
0 65 15 76 17 12 18 9 21 -50 3 -51 0 -65 -15 -76z"/>
<path d="M811 1595 c-43 -40 -50 -43 -61 -30 -18 22 -54 15 -58 -10 -4 -29 60
-89 86 -81 11 4 45 33 76 66 49 52 56 62 46 80 -16 30 -36 25 -89 -25z"/>
<path d="M964 1605 c-14 -36 3 -45 89 -45 90 0 113 10 96 42 -8 15 -22 18 -95
18 -66 0 -86 -3 -90 -15z"/>
<path d="M964 1515 c-16 -40 -1 -45 144 -45 112 0 142 3 152 15 10 12 10 18 0
30 -10 12 -40 15 -152 15 -114 0 -140 -3 -144 -15z"/>
<path d="M814 1349 c-41 -41 -42 -41 -68 -24 -21 14 -29 15 -41 5 -8 -7 -15
-20 -15 -30 0 -22 55 -70 79 -70 10 0 46 29 80 65 52 54 61 68 51 80 -20 24
-43 17 -86 -26z"/>
<path d="M972 1371 c-8 -4 -12 -19 -10 -32 3 -23 7 -24 90 -27 78 -2 88 -1 97
17 19 35 -10 51 -92 51 -40 0 -78 -4 -85 -9z"/>
<path d="M967 1283 c-13 -12 -7 -51 9 -57 9 -3 74 -6 144 -6 114 0 130 2 139
18 6 11 6 24 0 35 -9 15 -28 17 -148 17 -76 0 -141 -3 -144 -7z"/>
</g>
</svg>
